<svg height="512" viewBox="0 0 128 128" width="512" xmlns="http://www.w3.org/2000/svg" xmlns:xlink="http://www.w3.org/1999/xlink"><linearGradient id="a" gradientUnits="userSpaceOnUse" x1="117.236" x2="10.764" y1="117.233" y2="10.761"><stop offset="0" stop-color="#ec5569"/><stop offset="1" stop-color="#ffcb00"/></linearGradient><path d="m20.013 40.252a1.75 1.75 0 0 1 1.75-1.75h84.474a1.75 1.75 0 0 1 0 3.5h-84.474a1.75 1.75 0 0 1 -1.75-1.75zm1.75 11h84.474a1.75 1.75 0 0 0 0-3.5h-84.474a1.75 1.75 0 1 0 0 3.5zm10.737 5.748a1.75 1.75 0 0 0 0 3.5h63a1.75 1.75 0 0 0 0-3.5zm-11.619 29.252a1.752 1.752 0 0 0 2.394-.63l4.833-8.285.221 1.529a4.067 4.067 0 0 0 7.527 1.488.55.55 0 0 1 .476-.278.534.534 0 0 1 .488.257l.4.616a1.75 1.75 0 0 0 2.465.485l.286-.2a4.3 4.3 0 0 1 5.388.407 1.647 1.647 0 0 0 1.248.478l7.313-.187a1.75 1.75 0 1 0 -.09-3.5l-6.643.169a7.824 7.824 0 0 0 -8.043-.914 3.928 3.928 0 0 0 -2.888-1.113 4.04 4.04 0 0 0 -3.414 2 .567.567 0 0 1 -1.049-.208l-.936-6.5a1.75 1.75 0 0 0 -3.244-.632l-7.362 12.624a1.751 1.751 0 0 0 .63 2.394zm14.494 9.742a1.75 1.75 0 0 0 0 3.5h5.375a1.75 1.75 0 0 0 0-3.5zm92.625-73.744v83.494a1.75 1.75 0 0 1 -1.75 1.75h-27.565l.617 10.781a1.751 1.751 0 0 1 -2.719 1.556l-6.528-4.356-6.529 4.356a1.75 1.75 0 0 1 -2.718-1.556l.617-10.781h-79.675a1.75 1.75 0 0 1 -1.75-1.75v-83.494a1.75 1.75 0 0 1 1.75-1.75h96.75a1.75 1.75 0 0 1 0 3.5h-95v79.994h78.125l.257-4.5h-28.632a1.75 1.75 0 0 1 0-3.5h28.833l.446-7.8-4.222-1.747a1.748 1.748 0 0 1 -1.066-1.847l.814-6.167-.814-6.167a1.75 1.75 0 0 1 1.066-1.847l5.748-2.378 4.934-3.789a1.752 1.752 0 0 1 2.132 0l4.934 3.789 5.747 2.378a1.749 1.749 0 0 1 1.066 1.846l-.814 6.168.814 6.168a1.747 1.747 0 0 1 -1.066 1.845l-4.222 1.745.446 7.8h12.225a8.213 8.213 0 0 1 6.249-6.249v-51.5a8.213 8.213 0 0 1 -6.249-6.242h-92.5a8.213 8.213 0 0 1 -6.251 6.249v51.5a8.213 8.213 0 0 1 6.249 6.249h5.126a1.75 1.75 0 0 1 0 3.5h-6.688a1.75 1.75 0 0 1 -1.75-1.75 4.692 4.692 0 0 0 -4.687-4.691 1.751 1.751 0 0 1 -1.75-1.75v-54.619a1.75 1.75 0 0 1 1.75-1.75 4.693 4.693 0 0 0 4.687-4.688 1.75 1.75 0 0 1 1.75-1.75h95.625a1.749 1.749 0 0 1 1.75 1.75 4.693 4.693 0 0 0 4.688 4.688 1.75 1.75 0 0 1 1.75 1.75v54.619a1.751 1.751 0 0 1 -1.75 1.75 4.692 4.692 0 0 0 -4.688 4.687 1.749 1.749 0 0 1 -1.75 1.75h-13.585l.257 4.5h26.016v-79.994h-12.75a1.75 1.75 0 0 1 0-3.5h14.5a1.75 1.75 0 0 1 1.75 1.75zm-46.445 55.95a1.763 1.763 0 0 1 0 .459l-.668 5.064 4.719 1.953a1.723 1.723 0 0 1 .4.229l4.052 3.112 4.051-3.112a1.723 1.723 0 0 1 .4-.229l4.72-1.953-.669-5.065a1.748 1.748 0 0 1 0-.457l.669-5.064-4.729-1.952a1.727 1.727 0 0 1 -.4-.23l-4.051-3.111-4.049 3.111a1.727 1.727 0 0 1 -.4.23l-4.719 1.953zm14.052 36.771-1.415-24.718-3.071 2.358a1.747 1.747 0 0 1 -2.132 0l-3.072-2.359-1.417 24.72 4.581-3.057a1.748 1.748 0 0 1 1.943 0zm-5.552-32.79a3.75 3.75 0 1 0 -3.75-3.75 3.755 3.755 0 0 0 3.75 3.75z" fill="url(#a)"/></svg>